HIERARCHY
ROOT pelvis
{
  OFFSET 0 100 0
  CHANNELS 6 Xposition Yposition Zposition Zrotation Xrotation Yrotation
  JOINT pelvis_right_femur
  {
    OFFSET -10.78128 -3.44521 -0.5502486
    CHANNELS 3 Zrotation Xrotation Yrotation
    JOINT right_femur_tibia
    {
      OFFSET -0.8047443 -44.0398 -0.1307829
      CHANNELS 3 Zrotation Xrotation Yrotation
      JOINT right_tibia_foot
      {
        OFFSET 3.006224 -47.83518 -5
        CHANNELS 3 Zrotation Xrotation Yrotation
        End Site
        {
          OFFSET 0 -5 15
        }
      }
    }
  }
  JOINT pelvis_left_femur
  {
    OFFSET 10.78128 -3.44521 -0.5502486
    CHANNELS 3 Zrotation Xrotation Yrotation
    JOINT left_femur_tibia
    {
      OFFSET 0.8047443 -44.0398 -0.1307829
      CHANNELS 3 Zrotation Xrotation Yrotation
      JOINT left_tibia_foot
      {
        OFFSET -4.370144 -48.10324 -4.275266
        CHANNELS 3 Zrotation Xrotation Yrotation
        End Site
        {
          OFFSET 0 -5 15
        }
      }
    }
  }
  JOINT pelvis_spine1
  {
    OFFSET 0 6.468898 -3.129235
    CHANNELS 3 Zrotation Xrotation Yrotation
    JOINT spine1
    {
      OFFSET 0 23.15396 4.99043
      CHANNELS 3 Zrotation Xrotation Yrotation
      JOINT spine2
      {
        OFFSET 0 20.79997 -5.064912
        CHANNELS 3 Zrotation Xrotation Yrotation
        JOINT neck
        {
          OFFSET 0 14.38658 9.616178
          CHANNELS 3 Zrotation Xrotation Yrotation
          End Site
          {
            OFFSET 0 20 0
          }
        }
      }
      JOINT right_manubrium
      {
        OFFSET -5.722621 16.35077 3.967754
        CHANNELS 3 Zrotation Xrotation Yrotation
        JOINT right_clavicle
        {
          OFFSET -13.16364 1.694482 -4.693211
          CHANNELS 3 Zrotation Xrotation Yrotation
          JOINT right_humerus
          {
            OFFSET -28.5034 -0.3100689 -2.792744
            CHANNELS 3 Zrotation Xrotation Yrotation
            JOINT right_radius
            {
              OFFSET -25.15693 0.02248979 -1.271978
              CHANNELS 3 Zrotation Xrotation Yrotation
              End Site
              {
                OFFSET -15 0 0
              }
            }
          }
        }
      }
      JOINT left_manubrium
      {
        OFFSET 5.722621 16.35077 3.967754
        CHANNELS 3 Zrotation Xrotation Yrotation
        JOINT left_clavicle
        {
          OFFSET 13.16364 1.694482 -4.693211
          CHANNELS 3 Zrotation Xrotation Yrotation
          JOINT left_humerus
          {
            OFFSET 29.39168 -1.063119 -2.237045
            CHANNELS 3 Zrotation Xrotation Yrotation
            JOINT left_radius
            {
              OFFSET 24.59957 -0.9528479 0.9047498
              CHANNELS 3 Zrotation Xrotation Yrotation
              End Site
              {
                OFFSET 15 -0 -0
              }
            }
          }
        }
      }
    }
  }
}
MOTION
Frames: 11
Frame Time: 0.0416666666667
0 103.5113 0 1.708564 -0.3070188 0.04015324 4.415631 -14.5049 12.45984 -0 36.1108 -0 -4.023349 -18.3212 -5.088085 -7.1796 8.314556 -20.43049 -0 5.611496 -0 19.20003 -9.757647 27.03703 -2.501684 -2.907137 4.801323 2.473561 9.844924 -7.674847 1.499282 20.51375 6.839431 3.887147 -25.35662 9.053986 6.351702 -18.86876 11.13304 84.96028 35.16341 -18.74247 -0 0 15.7218 -9.143619 9.719565 4.752132 7.722016 -21.37138 -0.5650223 -92.76487 22.00454 20.09536 0 0 -15.36922 12.6722 15.53605 -0.7442675
0.4608134 103.1331 1.540704 1.317926 0.6819294 0.02791608 5.165654 -17.16361 13.02369 -0 36.04513 -0 -4.225716 -18.15875 -5.124706 -7.101046 8.750617 -20.76793 -0 6.127174 -0 19.03046 -10.86501 27.29436 -2.325382 -2.909133 4.770257 2.636014 9.67743 -7.960877 1.495794 20.07009 7.084163 3.964227 -25.98314 9.316477 6.115084 -18.87756 11.18324 85.41669 35.1002 -19.27306 -0 0 15.43407 -8.790902 9.765095 4.669482 7.993383 -21.57189 -0.2139552 -92.44402 21.75716 19.64293 0 0 -16.58279 13.10066 15.30419 -1.191534
0.8030658 102.5985 3.221631 0.8519951 -0.008954472 -0.01240814 5.04844 -17.58021 10.96779 -0 34.64736 -0 -5.367844 -16.71278 -4.545997 -6.678312 9.363277 -21.10301 -0 6.454033 -0 15.89301 -12.84843 27.16899 -2.766003 -2.047787 4.68424 2.020125 10.32836 -7.196594 1.176607 20.89338 6.980664 4.438206 -23.6976 7.998961 6.526896 -18.17058 11.23809 84.05515 35.35983 -17.19098 -0 0 14.51493 -12.49436 10.52287 6.521166 7.314034 -21.467 -1.596869 -91.0276 20.63881 18.2627 0 0 -15.35257 11.65339 13.76767 -0.3425825
1.061757 102.0551 5.02742 0.4313391 0.09979362 -0.1017632 5.401024 -19.2324 10.15134 -0 33.63865 -0 -6.092787 -15.65578 -4.207824 -6.374465 9.82534 -21.11481 -0 7.085485 -0 14.50155 -14.14441 26.8943 -2.835935 -1.723842 4.648784 1.910091 10.46725 -7.02624 1.078011 21.07059 6.975021 4.541305 -23.21115 7.660715 6.524802 -17.96816 11.28576 83.77924 35.30577 -16.64814 -0 0 14.1212 -13.56999 10.72655 7.174573 7.019257 -21.37606 -1.963896 -90.597 20.42133 17.91948 0 0 -15.1499 11.02504 13.18695 0.2036996
1.24535 101.4902 7.021029 -0.02426225 0.3133451 -0.216042 5.902141 -21.24608 9.381361 -0 32.24517 -0 -6.921916 -14.35347 -3.82253 -6.017576 10.22722 -20.8273 -0 8.122165 -0 13.48063 -15.21718 26.37616 -3.039007 -1.4032 4.707607 1.606338 10.72367 -6.64859 0.9441615 21.3954 6.97097 4.745842 -22.30931 7.174199 6.590227 -17.85932 11.31385 83.12068 35.27274 -15.52259 -0 0 14.08268 -15.16102 10.93209 8.018733 6.73391 -21.27411 -2.462718 -90.19638 19.93932 17.69771 0 0 -14.38978 10.49475 12.54572 0.5639091
1.370879 100.9238 9.240566 -0.428046 0.6072188 -0.3416536 6.462944 -23.19289 8.804416 -0 30.6882 -0 -7.735911 -13.04553 -3.460251 -5.681179 10.50147 -20.305 -0 9.513199 -0 12.96635 -15.86604 25.70515 -3.150939 -1.18697 4.753841 1.442813 10.85571 -6.421257 0.859161 21.58399 6.97102 4.844371 -21.81691 6.894689 6.578335 -17.82394 11.34377 82.72939 35.1872 -14.8011 -0 0 14.07477 -16.14158 11.03782 8.597997 6.501061 -21.15973 -2.751229 -89.98877 19.72565 17.67099 0 0 -13.9032 10.04842 12.1134 0.9649377
1.447526 100.3826 11.72492 -0.7898378 0.9495112 -0.4668609 7.059602 -24.9644 8.359384 -0 29.03124 -0 -8.593737 -11.71757 -3.109732 -5.358305 10.67115 -19.61191 -0 11.34943 -0 12.74116 -16.16183 24.87252 -3.283281 -1.01779 4.83614 1.24379 10.99284 -6.165529 0.7741428 21.76987 6.987014 4.96256 -21.30182 6.630501 6.563003 -17.8592 11.36356 82.28707 35.10114 -13.9943 -0 0 14.22831 -17.11932 11.11288 9.147109 6.321264 -21.06197 -3.011282 -89.84994 19.45045 17.74065 0 0 -13.31244 9.736905 11.73104 1.220061
1.481525 99.89191 14.49529 -1.093697 1.224681 -0.5880274 7.610813 -26.23995 7.974491 -0 27.47041 -0 -9.521914 -10.43012 -2.774441 -5.048402 10.69378 -18.82155 -0 13.6149 -0 12.67833 -16.05856 23.9248 -3.389158 -0.8880868 4.916549 1.086579 11.08996 -5.956233 0.703981 21.91109 7.00629 5.049105 -20.91235 6.432415 6.525584 -17.92309 11.38206 81.92484 35.00337 -13.31123 -0 0 14.40442 -17.90209 11.157 9.607652 6.166498 -20.96416 -3.201241 -89.77429 19.2522 17.87408 0 0 -12.80617 9.466739 11.42044 1.469408
1.476391 99.48167 17.55216 -1.347009 1.396331 -0.7074601 8.093932 -26.93923 7.648541 -0 26.17511 -0 -10.51315 -9.261768 -2.468109 -4.742382 10.54223 -18.00449 -0 16.26863 -0 12.68872 -15.57198 22.90229 -3.492485 -0.7887898 5.008487 0.9283856 11.17785 -5.752423 0.637545 22.03474 7.034651 5.136624 -20.55301 6.259419 6.478544 -18.02148 11.39534 81.57646 34.90403 -12.64298 -0 0 14.64176 -18.62464 11.18196 10.02489 6.045546 -20.88025 -3.359814 -89.73884 19.04125 18.05456 0 0 -12.2943 9.275025 11.15071 1.641075
1.435718 99.17218 20.8729 -1.549284 1.401869 -0.8372361 8.473238 -26.988 7.346319 -0 25.22461 -0 -11.54561 -8.278617 -2.196854 -4.43177 10.16729 -17.20488 -0 19.19999 -0 12.7592 -14.71454 21.87798 -3.584055 -0.7112844 5.101355 0.7853673 11.24931 -5.568352 0.5772526 22.13639 7.066921 5.213686 -20.24722 6.116238 6.420022 -18.13785 11.40614 81.26618 34.8007 -12.02924 -0 0 14.89764 -19.2611 11.19212 10.39692 5.944692 -20.80314 -3.485428 -89.73253 18.84931 18.26375 0 0 -11.81759 9.123837 10.91681 1.782395
1.364706 98.97193 24.41491 -1.696009 1.215259 -0.9946334 8.730154 -26.41094 7.051129 -0 24.59697 -0 -12.57364 -7.525911 -1.967207 -4.115897 9.529778 -16.44706 -0 22.24347 -0 12.93365 -13.54181 20.9338 -3.668942 -0.6519088 5.197767 0.6467556 11.31307 -5.393867 0.5201758 22.22338 7.10408 5.288807 -19.97036 5.991436 6.352215 -18.2726 11.41351 80.98037 34.69533 -11.44494 -0 0 15.17791 -19.84705 11.1906 10.73494 5.865322 -20.73735 -3.589836 -89.74825 18.65169 18.49588 0 0 -11.35278 9.023006 10.71024 1.873782
